<svg width="300" height="300" viewBox="0 0 300 300" fill="none" xmlns="http://www.w3.org/2000/svg">
<g clip-path="url(#clip0_62_3)">
<rect width="300" height="300" fill="white"/>
<line x1="99.5" y1="100" x2="99.5" stroke="black"/>
<line x1="199.5" y1="100" x2="199.5" stroke="black"/>
<line y1="99.5" x2="100" y2="99.5" stroke="black"/>
<line x1="99.5" y1="200" x2="99.5" y2="100" stroke="black"/>
<line x1="199.5" y1="200" x2="199.5" y2="100" stroke="black"/>
<line y1="199.5" x2="100" y2="199.5" stroke="black"/>
<line x1="99.5" y1="300" x2="99.5" y2="200" stroke="black"/>
<line x1="199.5" y1="300" x2="199.5" y2="200" stroke="black"/>
<line x1="299.5" y1="100" x2="299.5" stroke="black"/>
<line y1="99.5" x2="300" y2="99.5" stroke="black"/>
<line x1="299.5" y1="200" x2="299.5" y2="100" stroke="black"/>
<line y1="199.5" x2="300" y2="199.5" stroke="black"/>
<line x1="299.5" y1="300" x2="299.5" y2="200" stroke="black"/>
<path d="M58.3474 40.7273C58.1343 38.928 57.2702 37.5312 55.7551 36.5369C54.2399 35.5426 52.3815 35.0455 50.1798 35.0455C48.5699 35.0455 47.1613 35.3059 45.9539 35.8267C44.7584 36.3475 43.8232 37.0637 43.1485 37.9751C42.4856 38.8866 42.1542 39.9223 42.1542 41.0824C42.1542 42.053 42.385 42.8875 42.8467 43.5859C43.3202 44.2725 43.9239 44.8466 44.6578 45.3082C45.3917 45.758 46.1611 46.1309 46.966 46.4268C47.7709 46.7109 48.5107 46.9418 49.1855 47.1193L52.8786 48.1136C53.8256 48.3622 54.8791 48.7055 56.0392 49.1435C57.211 49.5814 58.3296 50.1792 59.395 50.9368C60.4722 51.6825 61.3599 52.6413 62.0583 53.8132C62.7567 54.9851 63.1059 56.4233 63.1059 58.1278C63.1059 60.0928 62.591 61.8684 61.5612 63.4545C60.5432 65.0407 59.0517 66.3014 57.0867 67.2365C55.1336 68.1716 52.7603 68.6392 49.9667 68.6392C47.3625 68.6392 45.1076 68.219 43.2018 67.3786C41.3079 66.5381 39.8164 65.3662 38.7274 63.8629C37.6502 62.3596 37.0406 60.6136 36.8985 58.625H41.444C41.5624 59.9981 42.024 61.1345 42.8289 62.0341C43.6457 62.9219 44.6755 63.5848 45.9184 64.0227C47.1731 64.4489 48.5226 64.6619 49.9667 64.6619C51.6476 64.6619 53.1568 64.3897 54.4944 63.8452C55.832 63.2888 56.8914 62.5194 57.6727 61.5369C58.4539 60.5426 58.8445 59.3826 58.8445 58.0568C58.8445 56.8494 58.5072 55.867 57.8325 55.1094C57.1578 54.3518 56.27 53.7363 55.1691 53.2628C54.0683 52.7893 52.8786 52.375 51.6002 52.0199L47.1258 50.7415C44.2849 49.9247 42.0358 48.7588 40.3786 47.2436C38.7214 45.7285 37.8928 43.7457 37.8928 41.2955C37.8928 39.2595 38.4433 37.4839 39.5441 35.9688C40.6568 34.4418 42.1483 33.258 44.0186 32.4176C45.9007 31.5653 48.0017 31.1392 50.3218 31.1392C52.6656 31.1392 54.7489 31.5594 56.5718 32.3999C58.3947 33.2285 59.8389 34.3648 60.9042 35.8089C61.9814 37.2531 62.5496 38.8925 62.6088 40.7273H58.3474Z" fill="black"/>
<path d="M159.737 31.6364H164.14V55.7131C164.14 58.1989 163.554 60.4183 162.382 62.3714C161.222 64.3127 159.583 65.8456 157.464 66.9702C155.345 68.0829 152.859 68.6392 150.007 68.6392C147.154 68.6392 144.668 68.0829 142.549 66.9702C140.43 65.8456 138.785 64.3127 137.613 62.3714C136.453 60.4183 135.873 58.1989 135.873 55.7131V31.6364H140.277V55.358C140.277 57.1335 140.667 58.7138 141.448 60.0987C142.23 61.4718 143.342 62.5549 144.786 63.348C146.242 64.1293 147.983 64.5199 150.007 64.5199C152.031 64.5199 153.771 64.1293 155.227 63.348C156.683 62.5549 157.795 61.4718 158.565 60.0987C159.346 58.7138 159.737 57.1335 159.737 55.358V31.6364Z" fill="black"/>
<path d="M247.656 68H236.435V31.6364H248.153C251.681 31.6364 254.699 32.3643 257.209 33.8203C259.718 35.2644 261.642 37.3419 262.979 40.0526C264.317 42.7514 264.986 45.983 264.986 49.7472C264.986 53.535 264.311 56.7962 262.962 59.5305C261.612 62.2531 259.647 64.3482 257.067 65.8161C254.486 67.272 251.349 68 247.656 68ZM240.838 64.0938H247.372C250.379 64.0938 252.871 63.5137 254.847 62.3537C256.824 61.1937 258.298 59.5424 259.268 57.3999C260.239 55.2573 260.724 52.7064 260.724 49.7472C260.724 46.8116 260.245 44.2843 259.286 42.1655C258.327 40.0348 256.895 38.4013 254.989 37.2649C253.084 36.1167 250.71 35.5426 247.869 35.5426H240.838V64.0938Z" fill="black"/>
<path d="M259.737 131.636H264.14V155.713C264.14 158.199 263.554 160.418 262.382 162.371C261.222 164.313 259.583 165.846 257.464 166.97C255.345 168.083 252.859 168.639 250.007 168.639C247.154 168.639 244.668 168.083 242.549 166.97C240.43 165.846 238.785 164.313 237.613 162.371C236.453 160.418 235.873 158.199 235.873 155.713V131.636H240.277V155.358C240.277 157.134 240.667 158.714 241.448 160.099C242.23 161.472 243.342 162.555 244.786 163.348C246.242 164.129 247.983 164.52 250.007 164.52C252.031 164.52 253.771 164.129 255.227 163.348C256.683 162.555 257.795 161.472 258.565 160.099C259.346 158.714 259.737 157.134 259.737 155.358V131.636Z" fill="black"/>
<path d="M138.095 168V131.636H142.498V149.676H142.924L159.26 131.636H165.012L149.743 148.043L165.012 168H159.686L147.044 151.097L142.498 156.21V168H138.095Z" fill="black"/>
<path d="M66.0423 149.818C66.0423 153.653 65.3498 156.968 63.9648 159.761C62.5799 162.555 60.68 164.709 58.2653 166.224C55.8505 167.74 53.0924 168.497 49.9911 168.497C46.8898 168.497 44.1317 167.74 41.717 166.224C39.3022 164.709 37.4023 162.555 36.0174 159.761C34.6325 156.968 33.94 153.653 33.94 149.818C33.94 145.983 34.6325 142.669 36.0174 139.875C37.4023 137.081 39.3022 134.927 41.717 133.412C44.1317 131.897 46.8898 131.139 49.9911 131.139C53.0924 131.139 55.8505 131.897 58.2653 133.412C60.68 134.927 62.5799 137.081 63.9648 139.875C65.3498 142.669 66.0423 145.983 66.0423 149.818ZM61.7809 149.818C61.7809 146.67 61.2541 144.012 60.2006 141.846C59.159 139.68 57.7444 138.04 55.957 136.928C54.1815 135.815 52.1928 135.259 49.9911 135.259C47.7894 135.259 45.7949 135.815 44.0075 136.928C42.2319 138.04 40.8174 139.68 39.7638 141.846C38.7222 144.012 38.2013 146.67 38.2013 149.818C38.2013 152.967 38.7222 155.624 39.7638 157.79C40.8174 159.957 42.2319 161.596 44.0075 162.709C45.7949 163.821 47.7894 164.378 49.9911 164.378C52.1928 164.378 54.1815 163.821 55.957 162.709C57.7444 161.596 59.159 159.957 60.2006 157.79C61.2541 155.624 61.7809 152.967 61.7809 149.818Z" fill="black"/>
<path d="M60.0919 246.835L56.3277 247.901C56.0909 247.273 55.7417 246.664 55.2801 246.072C54.8303 245.468 54.2148 244.971 53.4335 244.58C52.6523 244.19 51.652 243.994 50.4328 243.994C48.7638 243.994 47.3729 244.379 46.2602 245.148C45.1594 245.906 44.6089 246.871 44.6089 248.043C44.6089 249.084 44.9877 249.907 45.7453 250.511C46.5029 251.114 47.6866 251.617 49.2964 252.02L53.3447 253.014C55.7832 253.606 57.6002 254.512 58.7957 255.731C59.9913 256.938 60.589 258.495 60.589 260.401C60.589 261.963 60.1392 263.36 59.2396 264.591C58.3518 265.822 57.1089 266.793 55.5109 267.503C53.9129 268.213 52.0545 268.568 49.9356 268.568C47.1539 268.568 44.8516 267.964 43.0287 266.757C41.2058 265.55 40.0516 263.786 39.5663 261.466L43.5436 260.472C43.9224 261.939 44.6385 263.04 45.692 263.774C46.7574 264.508 48.1482 264.875 49.8646 264.875C51.8177 264.875 53.3684 264.461 54.5166 263.632C55.6766 262.792 56.2567 261.786 56.2567 260.614C56.2567 259.667 55.9252 258.874 55.2623 258.234C54.5995 257.583 53.5815 257.098 52.2084 256.778L47.6629 255.713C45.1653 255.121 43.3305 254.204 42.1586 252.961C40.9986 251.706 40.4186 250.138 40.4186 248.256C40.4186 246.717 40.8506 245.356 41.7148 244.172C42.5907 242.988 43.7803 242.059 45.2836 241.384C46.7988 240.71 48.5152 240.372 50.4328 240.372C53.1317 240.372 55.2505 240.964 56.7893 242.148C58.34 243.331 59.4408 244.894 60.0919 246.835Z" fill="black"/>
<path d="M149.998 268.568C147.536 268.568 145.375 267.982 143.517 266.81C141.67 265.638 140.226 263.999 139.185 261.892C138.155 259.785 137.64 257.323 137.64 254.506C137.64 251.665 138.155 249.185 139.185 247.066C140.226 244.947 141.67 243.302 143.517 242.13C145.375 240.958 147.536 240.372 149.998 240.372C152.46 240.372 154.614 240.958 156.461 242.13C158.319 243.302 159.763 244.947 160.793 247.066C161.835 249.185 162.356 251.665 162.356 254.506C162.356 257.323 161.835 259.785 160.793 261.892C159.763 263.999 158.319 265.638 156.461 266.81C154.614 267.982 152.46 268.568 149.998 268.568ZM149.998 264.804C151.868 264.804 153.407 264.325 154.614 263.366C155.822 262.407 156.715 261.146 157.295 259.584C157.875 258.021 158.165 256.329 158.165 254.506C158.165 252.683 157.875 250.984 157.295 249.41C156.715 247.835 155.822 246.563 154.614 245.592C153.407 244.622 151.868 244.136 149.998 244.136C148.128 244.136 146.589 244.622 145.381 245.592C144.174 246.563 143.28 247.835 142.7 249.41C142.12 250.984 141.83 252.683 141.83 254.506C141.83 256.329 142.12 258.021 142.7 259.584C143.28 261.146 144.174 262.407 145.381 263.366C146.589 264.325 148.128 264.804 149.998 264.804Z" fill="black"/>
<path d="M262.22 240.727L252.135 268H247.874L237.789 240.727H242.334L249.862 262.46H250.146L257.675 240.727H262.22Z" fill="black"/>
</g>
<defs>
<clipPath id="clip0_62_3">
<rect width="300" height="300" fill="white"/>
</clipPath>
</defs>
</svg>
